<?xml version="1.0" encoding="UTF-8" standalone="no"?>
<!-- Created with Inkscape (http://www.inkscape.org/) -->

<svg
   xmlns:dc="http://purl.org/dc/elements/1.1/"
   xmlns:cc="http://creativecommons.org/ns#"
   xmlns:rdf="http://www.w3.org/1999/02/22-rdf-syntax-ns#"
   xmlns:svg="http://www.w3.org/2000/svg"
   xmlns="http://www.w3.org/2000/svg"
   xmlns:sodipodi="http://sodipodi.sourceforge.net/DTD/sodipodi-0.dtd"
   xmlns:inkscape="http://www.inkscape.org/namespaces/inkscape"
   width="250mm"
   height="250mm"
   viewBox="0 0 250 250"
   version="1.1"
   id="svg8"
   inkscape:version="0.92.4 (fd57863, 2020-04-02)"
   sodipodi:docname="cookiedrawing5.svg">
  <defs
     id="defs2" />
  <sodipodi:namedview
     id="base"
     pagecolor="#ffffff"
     bordercolor="#666666"
     borderopacity="1.0"
     inkscape:pageopacity="0.0"
     inkscape:pageshadow="2"
     inkscape:zoom="5.5999999"
     inkscape:cx="842.81386"
     inkscape:cy="755.30819"
     inkscape:document-units="mm"
     inkscape:current-layer="layer1"
     showgrid="false"
     inkscape:window-width="1533"
     inkscape:window-height="845"
     inkscape:window-x="67"
     inkscape:window-y="27"
     inkscape:window-maximized="1" />
  <metadata
     id="metadata5">
    <rdf:RDF>
      <cc:Work
         rdf:about="">
        <dc:format>image/svg+xml</dc:format>
        <dc:type
           rdf:resource="http://purl.org/dc/dcmitype/StillImage" />
        <dc:title />
      </cc:Work>
    </rdf:RDF>
  </metadata>
  <g
     inkscape:label="Layer 1"
     inkscape:groupmode="layer"
     id="layer1"
     transform="translate(0,-47)">
    <path
       style="opacity:1;fill:#decc80;fill-opacity:1;stroke:#decc80;stroke-width:4.28904915;stroke-linecap:round;stroke-linejoin:round;stroke-miterlimit:4;stroke-dasharray:none;stroke-opacity:1"
       d="m 347.0918,268.20117 c -15.7771,21.90575 -38.8678,37.61744 -65.21289,44.37305 2.53302,10.06631 3.82279,20.44887 3.83593,30.8789 -0.0556,50.37558 -29.63487,95.214 -73.75976,111.81055 31.38505,7.52178 53.73492,37.65208 53.75976,72.47461 -0.0284,3.61694 -0.3006,7.2268 -0.81445,10.80078 30.64187,8.13908 52.2031,37.87806 52.24219,72.05664 -0.0274,5.89051 -0.70137,11.75658 -2.00781,17.47461 63.57219,3.52322 113.35927,56.6723 113.4375,121.09766 -0.0502,14.51094 -2.67044,28.89528 -7.73633,42.4707 4.45203,-0.66349 8.94661,-1.01203 13.44922,-1.04297 52.07322,-7.6e-4 94.28727,41.57319 94.28711,92.85742 -0.002,21.0041 -7.2352,41.38694 -20.51758,57.82032 245.17348,-18.61901 434.62396,-222.95258 434.68359,-468.83203 -0.18194,-36.84872 -4.69401,-73.54836 -13.44336,-109.34375 -17.41792,12.23534 -38.75744,18.88703 -60.72265,18.92773 -55.22895,0 -100.00067,-40.93464 -100,-91.42969 0.0405,-1.26093 0.10951,-2.52097 0.20703,-3.77929 -16.32374,8.07746 -34.54758,12.31934 -53.06446,12.35156 -21.20028,-0.0443 -41.95838,-5.60556 -59.89648,-16.04688 -19.01364,23.90967 -56.44597,38.88486 -97.24609,38.9043 -11.38807,-0.0108 -22.70454,-1.19288 -33.54493,-3.50391 -19.60398,11.55855 -42.75159,17.75484 -66.45507,17.78907 -49.9971,-0.0439 -94.59019,-27.2882 -111.48047,-68.10938 z"
       transform="matrix(0.26458333,0,0,0.26458333,0,47)"
       id="path10"
       inkscape:connector-curvature="0"
       sodipodi:nodetypes="cccccccccccccccccccccccc" />
    <circle
       style="opacity:1;fill:#554400;fill-opacity:1;stroke:#554400;stroke-width:1.00999999;stroke-linecap:round;stroke-linejoin:round;stroke-miterlimit:4;stroke-dasharray:none;stroke-opacity:1"
       id="path828"
       cx="172.35715"
       cy="204.77382"
       r="13.607142" />
    <path
       style="opacity:1;fill:#554400;fill-opacity:1;stroke:#554400;stroke-width:3.81732273;stroke-linecap:round;stroke-linejoin:round;stroke-miterlimit:4;stroke-dasharray:none;stroke-opacity:1"
       d="M 778.57227 330.27148 A 51.428568 51.428568 0 0 0 771.42773 356.31055 A 51.428568 51.428568 0 0 0 822.85742 407.73828 A 51.428568 51.428568 0 0 0 867.375 381.9707 A 99.999992 91.428573 0 0 1 778.57227 330.27148 z "
       transform="matrix(0.26458333,0,0,0.26458333,0,47)"
       id="path828-5" />
    <circle
       style="opacity:1;fill:#554400;fill-opacity:1;stroke:#554400;stroke-width:1.00999999;stroke-linecap:round;stroke-linejoin:round;stroke-miterlimit:4;stroke-dasharray:none;stroke-opacity:1"
       id="path826-3"
       cx="148.92262"
       cy="144.29762"
       r="7.9375" />
    <circle
       style="opacity:1;fill:#554400;fill-opacity:1;stroke:#554400;stroke-width:1.00999999;stroke-linecap:round;stroke-linejoin:round;stroke-miterlimit:4;stroke-dasharray:none;stroke-opacity:1"
       id="path826-2"
       cx="177.64882"
       cy="245.59523"
       r="7.9375" />
    <circle
       style="opacity:1;fill:#554400;fill-opacity:1;stroke:#554400;stroke-width:1.00999999;stroke-linecap:round;stroke-linejoin:round;stroke-miterlimit:4;stroke-dasharray:none;stroke-opacity:1"
       id="path828-70"
       cx="205.61905"
       cy="211.57738"
       r="13.607142" />
    <circle
       style="opacity:1;fill:#554400;fill-opacity:1;stroke:#554400;stroke-width:1.00999999;stroke-linecap:round;stroke-linejoin:round;stroke-miterlimit:4;stroke-dasharray:none;stroke-opacity:1"
       id="path828-93"
       cx="91.470238"
       cy="150.34525"
       r="13.607142" />
    <circle
       style="opacity:1;fill:#554400;fill-opacity:1;stroke:#554400;stroke-width:1.00999999;stroke-linecap:round;stroke-linejoin:round;stroke-miterlimit:4;stroke-dasharray:none;stroke-opacity:1"
       id="path824-60"
       cy="181.33928"
       cx="119.44048"
       r="17.008926" />
    <ellipse
       style="opacity:1;fill:#ffffff;fill-opacity:1;stroke:none;stroke-width:1.00999999;stroke-linecap:round;stroke-linejoin:round;stroke-miterlimit:4;stroke-dasharray:none;stroke-opacity:1"
       id="path917"
       cx="-89.580353"
       cy="315.8988"
       rx="26.080357"
       ry="39.309525" />
  </g>
</svg>
