<?xml version="1.0" encoding="UTF-8" standalone="no"?>
<!-- Created with Inkscape (http://www.inkscape.org/) -->

<svg
   xmlns:dc="http://purl.org/dc/elements/1.1/"
   xmlns:cc="http://creativecommons.org/ns#"
   xmlns:rdf="http://www.w3.org/1999/02/22-rdf-syntax-ns#"
   xmlns:svg="http://www.w3.org/2000/svg"
   xmlns="http://www.w3.org/2000/svg"
   xmlns:sodipodi="http://sodipodi.sourceforge.net/DTD/sodipodi-0.dtd"
   xmlns:inkscape="http://www.inkscape.org/namespaces/inkscape"
   width="250mm"
   height="250mm"
   viewBox="0 0 250 250"
   version="1.1"
   id="svg8"
   inkscape:version="0.92.4 (fd57863, 2020-04-02)"
   sodipodi:docname="cookiedrawing3.svg">
  <defs
     id="defs2" />
  <sodipodi:namedview
     id="base"
     pagecolor="#ffffff"
     bordercolor="#666666"
     borderopacity="1.0"
     inkscape:pageopacity="0.0"
     inkscape:pageshadow="2"
     inkscape:zoom="0.24748737"
     inkscape:cx="966.8893"
     inkscape:cy="331.42857"
     inkscape:document-units="mm"
     inkscape:current-layer="g3986"
     showgrid="false"
     inkscape:window-width="1533"
     inkscape:window-height="845"
     inkscape:window-x="67"
     inkscape:window-y="27"
     inkscape:window-maximized="1" />
  <metadata
     id="metadata5">
    <rdf:RDF>
      <cc:Work
         rdf:about="">
        <dc:format>image/svg+xml</dc:format>
        <dc:type
           rdf:resource="http://purl.org/dc/dcmitype/StillImage" />
        <dc:title />
      </cc:Work>
    </rdf:RDF>
  </metadata>
  <g
     inkscape:label="Layer 1"
     inkscape:groupmode="layer"
     id="layer1"
     transform="translate(0,-47)">
    <g
       id="g3986">
      <path
         style="opacity:1;fill:#decc80;fill-opacity:1;stroke:#decc80;stroke-width:4.28904915;stroke-linecap:round;stroke-linejoin:round;stroke-miterlimit:4;stroke-dasharray:none;stroke-opacity:1"
         d="M 472.44141 2.1445312 A 470.29639 470.29639 0 0 0 373.20117 13.320312 A 52.857138 55.714283 0 0 1 380 40.595703 A 52.857138 55.714283 0 0 1 327.14258 96.310547 A 52.857138 55.714283 0 0 1 302.83398 90.015625 A 110 94.285709 0 0 1 302.85742 90.595703 A 110 94.285709 0 0 1 223.20508 181.18164 A 87.142851 85.714283 0 0 1 228.57227 210.5957 A 87.142851 85.714283 0 0 1 224.21094 237.18945 A 110 118.57142 0 0 1 285.71484 343.45312 A 110 118.57142 0 0 1 211.95508 455.26367 A 68.571423 74.285712 0 0 1 265.71484 527.73828 A 68.571423 74.285712 0 0 1 264.90039 538.53906 A 68.571423 74.285712 0 0 1 317.14258 610.5957 A 68.571423 74.285712 0 0 1 315.13477 628.07031 A 120 121.42857 0 0 1 428.57227 749.16797 A 120 121.42857 0 0 1 420.83594 791.63867 A 94.285709 92.857133 0 0 1 434.28516 790.5957 A 94.285709 92.857133 0 0 1 528.57227 883.45312 A 94.285709 92.857133 0 0 1 508.05469 941.27344 A 470.29639 470.29639 0 0 0 942.73828 472.44141 A 470.29639 470.29639 0 0 0 472.44141 2.1445312 z "
         id="path10"
         transform="matrix(0.26458333,0,0,0.26458333,0,47)" />
      <circle
         r="17.008926"
         cx="135.31549"
         cy="77.395836"
         id="path824"
         style="opacity:1;fill:#554400;fill-opacity:1;stroke:#554400;stroke-width:1.00999999;stroke-linecap:round;stroke-linejoin:round;stroke-miterlimit:4;stroke-dasharray:none;stroke-opacity:1" />
      <circle
         r="13.607142"
         cy="204.77382"
         cx="172.35715"
         id="path828"
         style="opacity:1;fill:#554400;fill-opacity:1;stroke:#554400;stroke-width:1.00999999;stroke-linecap:round;stroke-linejoin:round;stroke-miterlimit:4;stroke-dasharray:none;stroke-opacity:1" />
      <circle
         r="13.607142"
         cy="141.2738"
         cx="217.71428"
         id="path828-5"
         style="opacity:1;fill:#554400;fill-opacity:1;stroke:#554400;stroke-width:1.00999999;stroke-linecap:round;stroke-linejoin:round;stroke-miterlimit:4;stroke-dasharray:none;stroke-opacity:1" />
      <circle
         r="7.9375"
         cy="144.29762"
         cx="148.92262"
         id="path826-3"
         style="opacity:1;fill:#554400;fill-opacity:1;stroke:#554400;stroke-width:1.00999999;stroke-linecap:round;stroke-linejoin:round;stroke-miterlimit:4;stroke-dasharray:none;stroke-opacity:1" />
      <circle
         r="7.9375"
         cy="95.916664"
         cx="75.595238"
         id="path826-5"
         style="opacity:1;fill:#554400;fill-opacity:1;stroke:#554400;stroke-width:1.00999999;stroke-linecap:round;stroke-linejoin:round;stroke-miterlimit:4;stroke-dasharray:none;stroke-opacity:1" />
      <circle
         r="7.9375"
         cy="83.065475"
         cx="193.5238"
         id="path826-6"
         style="opacity:1;fill:#554400;fill-opacity:1;stroke:#554400;stroke-width:1.00999999;stroke-linecap:round;stroke-linejoin:round;stroke-miterlimit:4;stroke-dasharray:none;stroke-opacity:1" />
      <circle
         r="7.9375"
         cy="245.59523"
         cx="177.64882"
         id="path826-2"
         style="opacity:1;fill:#554400;fill-opacity:1;stroke:#554400;stroke-width:1.00999999;stroke-linecap:round;stroke-linejoin:round;stroke-miterlimit:4;stroke-dasharray:none;stroke-opacity:1" />
      <circle
         r="13.607142"
         cy="211.57738"
         cx="205.61905"
         id="path828-70"
         style="opacity:1;fill:#554400;fill-opacity:1;stroke:#554400;stroke-width:1.00999999;stroke-linecap:round;stroke-linejoin:round;stroke-miterlimit:4;stroke-dasharray:none;stroke-opacity:1" />
      <circle
         r="13.607142"
         cy="150.34525"
         cx="91.470238"
         id="path828-93"
         style="opacity:1;fill:#554400;fill-opacity:1;stroke:#554400;stroke-width:1.00999999;stroke-linecap:round;stroke-linejoin:round;stroke-miterlimit:4;stroke-dasharray:none;stroke-opacity:1" />
      <circle
         r="17.008926"
         cx="119.44048"
         cy="181.33928"
         id="path824-60"
         style="opacity:1;fill:#554400;fill-opacity:1;stroke:#554400;stroke-width:1.00999999;stroke-linecap:round;stroke-linejoin:round;stroke-miterlimit:4;stroke-dasharray:none;stroke-opacity:1" />
    </g>
  </g>
</svg>
