<?xml version="1.0" encoding="UTF-8" standalone="no"?>
<!-- Created with Inkscape (http://www.inkscape.org/) -->

<svg
   xmlns:dc="http://purl.org/dc/elements/1.1/"
   xmlns:cc="http://creativecommons.org/ns#"
   xmlns:rdf="http://www.w3.org/1999/02/22-rdf-syntax-ns#"
   xmlns:svg="http://www.w3.org/2000/svg"
   xmlns="http://www.w3.org/2000/svg"
   xmlns:sodipodi="http://sodipodi.sourceforge.net/DTD/sodipodi-0.dtd"
   xmlns:inkscape="http://www.inkscape.org/namespaces/inkscape"
   width="250mm"
   height="250mm"
   viewBox="0 0 250 250"
   version="1.1"
   id="svg8"
   sodipodi:docname="flowersplate.svg"
   inkscape:version="0.92.4 (fd57863, 2020-04-02)">
  <defs
     id="defs2">
    <style
       id="style1085"
       type="text/css">
   <![CDATA[
    .fil9 {fill:#753F8F}
    .fil36 {fill:#9D7C59}
    .fil2 {fill:#AB2742}
    .fil8 {fill:#CC3A69}
    .fil20 {fill:black}
    .fil30 {fill:#009900}
    .fil25 {fill:#1E6E4B}
    .fil4 {fill:#26944A}
    .fil13 {fill:#2DA954}
    .fil10 {fill:#480C2D}
    .fil41 {fill:#663333}
    .fil45 {fill:#666633}
    .fil18 {fill:#6CA280}
    .fil7 {fill:#97173F}
    .fil21 {fill:#9900CC}
    .fil1 {fill:#99CC99}
    .fil14 {fill:#BC0C0C}
    .fil32 {fill:#CC3399}
    .fil24 {fill:#CCCCFF}
    .fil28 {fill:#E0316A}
    .fil15 {fill:#E9302D}
    .fil34 {fill:#F33131}
    .fil35 {fill:#FACEC3}
    .fil42 {fill:#FB5D5A}
    .fil27 {fill:red}
    .fil5 {fill:#FF5BAD}
    .fil26 {fill:#FF6600}
    .fil19 {fill:#FF99CC}
    .fil11 {fill:#FFCF15}
    .fil17 {fill:yellow}
    .fil33 {fill:#009846;fill-rule:nonzero}
    .fil39 {fill:#98274B;fill-rule:nonzero}
    .fil29 {fill:#9D7C59;fill-rule:nonzero}
    .fil43 {fill:#AB2742;fill-rule:nonzero}
    .fil6 {fill:black;fill-rule:nonzero}
    .fil38 {fill:#007C00;fill-rule:nonzero}
    .fil40 {fill:#0B622F;fill-rule:nonzero}
    .fil12 {fill:#195B2C;fill-rule:nonzero}
    .fil22 {fill:#1E6E4B;fill-rule:nonzero}
    .fil0 {fill:#26944A;fill-rule:nonzero}
    .fil23 {fill:#507C60;fill-rule:nonzero}
    .fil16 {fill:#6ABA02;fill-rule:nonzero}
    .fil31 {fill:#8BB2AD;fill-rule:nonzero}
    .fil44 {fill:#97173F;fill-rule:nonzero}
    .fil37 {fill:#A2A2A3;fill-rule:nonzero}
    .fil3 {fill:#B2BE8E;fill-rule:nonzero}
   ]]>
  </style>
  </defs>
  <sodipodi:namedview
     id="base"
     pagecolor="#ffffff"
     bordercolor="#666666"
     borderopacity="1.0"
     inkscape:pageopacity="0.0"
     inkscape:pageshadow="2"
     inkscape:zoom="0.70710678"
     inkscape:cx="435.33473"
     inkscape:cy="545.49841"
     inkscape:document-units="mm"
     inkscape:current-layer="layer1"
     showgrid="false"
     showguides="true"
     inkscape:window-width="1533"
     inkscape:window-height="845"
     inkscape:window-x="67"
     inkscape:window-y="27"
     inkscape:window-maximized="1" />
  <metadata
     id="metadata5">
    <rdf:RDF>
      <cc:Work
         rdf:about="">
        <dc:format>image/svg+xml</dc:format>
        <dc:type
           rdf:resource="http://purl.org/dc/dcmitype/StillImage" />
        <dc:title></dc:title>
      </cc:Work>
    </rdf:RDF>
  </metadata>
  <g
     inkscape:label="Layer 1"
     inkscape:groupmode="layer"
     id="layer1"
     transform="translate(0,-47)">
    <circle
       style="opacity:1;fill:#04adbf;fill-opacity:1;stroke:#000000;stroke-width:2.43355227;stroke-linecap:round;stroke-linejoin:round;stroke-miterlimit:4;stroke-dasharray:none;stroke-opacity:0"
       id="path815"
       cx="125.00001"
       cy="171.99998"
       r="123.78323" />
    <g
       style="clip-rule:evenodd;fill-rule:evenodd;image-rendering:optimizeQuality;shape-rendering:geometricPrecision;text-rendering:geometricPrecision"
       id="g1424"
       transform="matrix(1.9736508,0,0,1.9736508,279.24411,8.4655332)">
      <g
         id="g2240"
         transform="matrix(1.0000001,0,0,0.99999848,6.0821514e-4,4.4914506e-4)">
        <g
           id="Слой_x0020_1">
  <metadata
   id="CorelCorpID_0Corel-Layer" />

  
  
  
  
  
  
  
  
  
  
  
  
  
  
  
  
  
  
  
  
  
  
  
  
  
  
  
  
  
  
  
  
  
 <circle
   r="49.917038"
   cy="82.858864"
   cx="-78.152267"
   id="path1426"
   style="opacity:1;fill:none;fill-opacity:1;stroke:#025373;stroke-width:1.50097442;stroke-linecap:round;stroke-linejoin:round;stroke-miterlimit:4;stroke-dasharray:none;stroke-opacity:1" />
</g>
        <g
           id="g2176">
          <g
             transform="translate(4.1167363e-6)"
             style="clip-rule:evenodd;fill-rule:evenodd;image-rendering:optimizeQuality;shape-rendering:geometricPrecision;text-rendering:geometricPrecision"
             id="_247253808">
   
   
   
  <path
   d="m -42.667355,77.69584 c -0.969459,1.833751 -5.109799,2.758976 -4.312455,0.184756 0.185151,-0.597912 1.83511,-0.815076 3.125261,-0.879538 -0.563542,-0.314157 -1.160706,-0.626344 -1.795909,-0.936756 -0.82379,1.303234 -2.42022,2.665077 -2.969929,1.833222 -0.865154,-1.309214 1.242061,-1.804793 1.245324,-1.807037 -1.59736,-0.601889 -1.889121,-2.516365 0.496069,-2.189395 -0.93999,-1.71568 -0.106498,-2.811811 0.841433,-2.08262 0.795664,0.612234 1.188123,2.189239 0.735585,3.524171 0.864204,0.422219 1.659399,0.847415 2.396505,1.276008 -0.654478,-1.078875 -1.779285,-3.214414 -1.297801,-3.811294 1.888971,-2.341804 3.368477,2.603526 1.83059,4.12817 0.867806,0.526834 1.65198,1.059133 2.370726,1.597602 -0.648792,-1.060029 -1.820124,-3.258032 -1.33046,-3.865062 1.917049,-2.376581 3.412277,2.751955 1.760019,4.193683 0.825783,0.644828 1.564328,1.298586 2.247162,1.962961 -0.448485,-0.717082 -1.041656,-1.97694 -1.159393,-2.868637 -0.127431,-0.966614 1.072924,-2.050762 1.69245,-1.87681 1.124594,0.316037 0.524809,4.573354 -0.212128,5.062451 1.27102,1.27447 2.357186,2.588091 3.478034,3.95057 0.09025,-0.520349 0.155701,-1.198935 0.200091,-1.966028 -1.605273,0.283368 -4.142823,-2.133966 -2.072348,-2.719095 0.527986,-0.149305 1.528642,1.120102 2.10845,1.96598 0.02275,-0.588578 0.03537,-1.211524 0.03909,-1.842571 -1.601071,0.0303 -3.802453,-2.185371 -1.832742,-2.742032 0.450944,-0.127448 1.246798,0.77987 1.830635,1.574404 -0.0048,-0.509509 -0.01441,-1.012117 -0.02806,-1.493844 -1.598473,0.0042 -3.762986,-2.188467 -1.80464,-2.741954 0.432413,-0.122199 1.181401,0.706626 1.757029,1.475314 -0.04602,-0.965028 -0.109018,-1.762714 -0.180983,-2.239095 -0.957614,-0.211593 -1.32825,-1.476054 -1.008996,-2.084482 0.105744,-0.201389 2.214245,-1.202947 2.372708,-0.06392 0.116705,0.83855 0.08711,1.804631 -0.598094,2.093423 0.09621,0.679954 0.177333,1.714157 0.230077,2.896213 0.43578,-0.89365 1.331407,-2.475055 1.914549,-2.414811 2.316478,0.239331 -0.24576,3.269863 -1.892999,2.94805 0.02331,0.645018 0.03802,1.322835 0.04242,2.00278 0.454173,-0.908111 1.295938,-2.347041 1.852709,-2.28955 2.297093,0.2373 -0.20357,3.220028 -1.851958,2.955838 -0.0017,0.465003 -0.0086,0.930334 -0.02158,1.395152 0.467735,-0.840711 1.314047,-1.590476 1.765737,-1.543874 2.186979,0.225934 -0.182026,2.752032 -1.816663,2.783755 -0.05729,1.016594 1.773077,13.84844 2.264116,15.015679 l -1.423915,1.421425 c -1.844633,-14.386757 -3.60574,-15.433615 -5.648737,-17.525378 -1.169025,1.680306 -4.939713,2.426931 -4.175604,-0.03983 0.190335,-0.614412 1.927686,-0.826726 3.231716,-0.884598 -0.492881,-0.460808 -1.016443,-0.91647 -1.58183,-1.367315 -1.068082,1.762815 -5.034758,2.603843 -4.252848,0.07939 0.18836,-0.60817 1.892788,-0.8225 3.192134,-0.882723 -0.544008,-0.39033 -1.124766,-0.778427 -1.750556,-1.162698 z"
   class="fil4"
   id="_247255224-5"
   inkscape:connector-curvature="0"
   style="clip-rule:evenodd;fill:#025373;fill-opacity:1;fill-rule:evenodd;stroke-width:1.32767928;image-rendering:optimizeQuality;shape-rendering:geometricPrecision;text-rendering:geometricPrecision"
   sodipodi:nodetypes="cccccccccccccccccccccccccccccccccccccccccccccccccccc" />
<path
   d="m -48.621151,77.896983 c -1.923221,0.434675 -4.088005,0.106307 -4.967129,-0.60077 -1.367266,0.665421 -3.10992,-0.962801 0.051,-0.980202 -1.831416,-0.09956 -2.691087,-1.776337 0.21126,-1.480358 -2.742517,-0.985088 -1.240755,-1.884421 0.433047,-1.439422 -1.913772,-0.508748 -2.12048,-1.834035 0.439115,-1.404354 -1.358942,-0.36132 -2.408935,-2.186277 0.462784,-1.409053 -1.395124,-0.466581 -1.76285,-2.336622 0.770422,-1.072011 -1.888581,-1.257726 0.03109,-2.75036 0.714787,-0.378006 1.754997,0.466613 3.160472,1.412915 4.090517,2.486063 -0.765127,-0.21928 -1.276161,0.800207 -0.464333,2.281899 -2.385195,-0.326979 -2.093426,1.587502 -0.496067,2.189391 -0.0028,0.0025 -2.110093,0.497784 -1.245547,1.806723 z"
   class="fil5"
   id="_247254672-9"
   inkscape:connector-curvature="0"
   style="clip-rule:evenodd;fill:#f29472;fill-opacity:1;fill-rule:evenodd;stroke-width:1.32767928;image-rendering:optimizeQuality;shape-rendering:geometricPrecision;text-rendering:geometricPrecision" />
<path
   d="m -34.519077,72.278156 c -0.38602,-1.137665 -0.133919,-2.810099 0.869081,-3.16598 0.877336,-0.311378 1.571944,1.545547 1.445347,2.899901 -0.376682,-0.803859 -2.213555,0.07751 -2.314428,0.266079 z"
   class="fil5"
   id="_247254840-2"
   inkscape:connector-curvature="0"
   style="clip-rule:evenodd;fill:#f29472;fill-opacity:1;fill-rule:evenodd;stroke-width:1.32767928;image-rendering:optimizeQuality;shape-rendering:geometricPrecision;text-rendering:geometricPrecision" />
</g>
          <g
             transform="rotate(5.4589136,-800.31078,-885.5496)"
             style="clip-rule:evenodd;fill-rule:evenodd;image-rendering:optimizeQuality;shape-rendering:geometricPrecision;text-rendering:geometricPrecision"
             id="_247240944-3">
            <path
               d="m 32.856354,36.02524 c -0.332,-0.2998 -0.7253,-0.6266 -1.1182,-0.8903 -1.518,-1.0186 -3.4891,0.2338 -0.7075,1.5911 0.8287,0.4044 1.8379,0.4764 2.3507,0.3783 0.5495,1.1874 0.9784,2.3198 1.2951,3.4142 -1.4835,0.004 -3.2702,-0.0626 -4.5203,-0.9614 -0.1532,0.0268 -0.3257,0.0447 -0.52,0.0516 0.1432,0.215 0.2486,0.4093 0.3218,0.5834 0.8096,0.5251 1.769,0.7643 2.7184,0.8732 -0.3955,0.1278 -0.8276,0.2872 -1.2147,0.4728 -1.6486,0.79 -1.5712,3.1241 1.011,1.4176 0.7565,-0.4998 1.325,-1.3134 1.511,-1.8078 0.2952,0.006 0.585,0.007 0.865,0.005 0.2104,0.8315 0.3553,1.6425 0.4385,2.4408 0.145,1.3923 0.102,2.7492 -0.1086,4.1122 -0.2764,-0.5718 -0.6773,-1.3256 -1.1255,-1.9499 -1.2887,-1.7948 -4.0498,-1.2092 -1.4734,1.5028 0.7363,0.775 1.7897,1.274 2.4236,1.4066 -0.2006,0.9531 -0.4801,1.9139 -0.8321,2.8964 -0.2652,-0.581 -0.743,-1.5395 -1.2918,-2.3038 -1.2887,-1.7947 -4.0498,-1.2092 -1.4733,1.5028 0.7803,0.8214 1.9168,1.3327 2.5325,1.4263 -0.0621,0.1612 -0.601,1.0678 -0.6668,1.2303 0.1485,0.189 0.2968,0.3921 0.4296,0.632 1.282916,-2.57827 0.986207,-1.337764 1.9609,-5.43 0.6518,0.0209 1.7753,-0.2029 2.667,-0.7622 3.169,-1.9877 0.6396,-3.2402 -1.0542,-1.8215 -0.5179,0.4338 -1.0252,0.9737 -1.4186,1.4276 0.1039,-0.7713 0.1555,-1.5425 0.1513,-2.3207 0.3379,-0.2462 0.6319,-0.5027 0.8876,-0.764 0.4876,0.218 1.4429,0.3928 2.3169,0.2249 3.0395,-0.5837 1.4638,-2.3074 -0.2675,-1.7206 -0.4402,0.1492 -0.8968,0.3573 -1.2908,0.5566 0.6601,-1.0038 0.8695,-1.974 0.951,-2.5884 -0.0882,-0.1686 -0.1749,-0.3544 -0.2595,-0.5587 l -0.0162,-0.0387 -0.0258,0.0343 c -0.1075,0.1453 -0.2131,0.2779 -0.3166,0.3989 -0.0976,0.7968 -0.4303,2.3542 -2.0024,3.6695 -0.0147,-0.275 -0.0364,-0.5511 -0.0654,-0.8287 -0.0827,-0.7945 -0.2242,-1.6001 -0.4277,-2.424 -0.0761,-0.1674 -0.127,-0.3612 -0.1503,-0.5716 -0.5078,-1.8203 -1.3162,-3.7358 -2.4619,-5.8221 0.469,-0.479 0.8929,-1.035 1.2644,-1.624 0.289,-0.4583 0.5467,-0.9365 0.7696,-1.4139 -0.0389,-0.2772 -0.0241,-0.5797 0.0667,-0.8913 -0.1377,0.022 -0.269,0.0402 -0.3943,0.0547 -0.2613,0.6406 -0.5906,1.2967 -0.978,1.9109 -0.3147,0.499 -0.6674,0.9708 -1.0526,1.3846 -0.326,-0.5717 -0.6767,-1.1563 -1.053,-1.7554 -0.221,-0.0558 -0.4755,-0.159 -0.7685,-0.3234 0.0043,0.1069 0.0045,0.2067 0.0017,0.301 0.8237,1.2885 1.5282,2.5076 2.1212,3.672 z"
               class="fil25"
               id="_247241736-6"
               inkscape:connector-curvature="0"
               style="fill:#025373;fill-opacity:1"
               sodipodi:nodetypes="cccccccccccccccccccccccccccccccsccccccccccccccccccccc" />
            <path
               d="m 40.904154,38.12624 c 4.5978,1.4772 4.6542,-6.5745 -0.1861,-2.6496 2.6058,-5.4042 -2.4717,-4.8211 -2.5214,-0.8776 -0.5526,-1.8143 -3.0701,-1.1532 -3.6048,-0.1161 -1.2528,2.4301 1.671,3.0159 2.1174,3.2223 -2.6549,1.8764 -1.1408,6.3202 1.62,2.5484 1.0386,2.5459 2.3961,2.2562 3.1386,1.7226 1.9601,-1.4084 0.8235,-2.7043 -0.5637,-3.85 z m -11.9236,-0.3771 c 1.7536,-2.248 -2.6975,-3.9162 -1.5063,-0.4356 -2.4654,-2.5429 -3.1745,0.3898 -0.999,1.219 -1.0191,0.0972 -1.3128,1.4797 -0.8979,2.0399 0.7052,0.952 1.7168,0.0395 2.317,-0.584 0.1844,2.1155 3.271,1.9172 1.7418,-0.3798 1.6222,-0.0581 1.7376,-0.8692 1.5928,-1.3892 -0.382,-1.3728 -1.3313,-1.0063 -2.2484,-0.4703 z m 8.2629,-8.4255 c 2.8847,-1.0894 -0.2876,-5.1352 -1.1462,-1.2499 -0.846,-3.7363 -3.1515,-1.4267 -1.6088,0.5636 -1.0465,-0.5083 -2.5019,0.8798 -2.0874,1.696 -0.3312,-0.1613 -0.7895,-0.2018 -1.2599,-0.2104 2.6671,-1.0072 -0.2659,-4.7478 -1.0598,-1.1557 -0.5408,-2.2611 -2.9136,-1.319 -1.4873,0.5212 -0.9342,-0.4537 -2.214,0.8488 -1.9532,1.6803 0.2457,0.7831 1.9215,0.7967 2.4076,0.3013 -0.537,1.8427 1.7956,3.3393 1.685,0.5821 1.4154,0.7945 1.9361,0.1617 2.0831,-0.3577 0.1272,-0.4494 0.105,-0.7711 -0.0196,-1.0009 0.404,0.1941 1.0971,0.2607 2.1829,0.0872 -0.5807,1.993 1.9422,3.6117 1.8225,0.6294 1.531,0.8594 2.0942,0.1751 2.2532,-0.3867 0.4196,-1.4829 -0.6634,-1.6787 -1.8121,-1.6998 z"
               class="fil26"
               id="_247242528-7"
               inkscape:connector-curvature="0"
               style="fill:#f2c063;fill-opacity:1" />
          </g>
          <g
             transform="matrix(1.3762534,0.11380215,-0.11380215,1.3762534,-216.91657,-129.06188)"
             style="clip-rule:evenodd;fill-rule:evenodd;image-rendering:optimizeQuality;shape-rendering:geometricPrecision;text-rendering:geometricPrecision"
             id="_249242784-5">
            <path
               d="m 137.058,159.858 c -0.5331,-1.1598 1.6257,-1.8549 1.9217,-0.5167 0.6842,-1.3263 2.3977,0.5851 1.2122,1.3732 1.2421,1.0606 -0.1278,2.1936 -0.8774,1.4781 -0.0498,1.3946 -1.9001,0.7571 -1.8351,-0.3259 -0.6166,0.7176 -1.9965,-1.8006 -0.4214,-2.0087 z m 8.0443,2.0299 c -49.493636,21.50385 -24.74682,10.75193 0,0 z m -1.4654,-8.4039 c 0.6426,-1.1029 2.2865,0.0568 1.5276,1.2755 1.1329,-0.2814 0.9252,2.4608 -0.4011,1.9438 -0.3335,1.7543 -1.8941,0.9938 -1.7396,-0.0308 -1.1696,0.761 -1.7117,-1.1195 -0.7881,-1.689 -0.9493,-0.6999 0.3255,-2.6687 1.4012,-1.4995 z m -5.017,-7.7537 c 0.0718,-1.4785 2.3834,-1.1637 2.2539,0.4962 1.3653,-0.9103 2.2675,2.0381 0.6261,2.2149 0.4793,1.3161 -1.4875,2.2434 -1.8067,0.8981 -0.7971,1.4084 -2.7461,-0.3705 -1.714,-1.317 -1.5998,-0.008 -1.0913,-2.9205 0.6407,-2.2922 z m -1.3098,5.6916 c 0.062,-1.2749 2.0553,-1.0034 1.9436,0.4279 0.8756,-0.7719 1.9552,1.7574 0.5399,1.91 0.5126,1.7105 -1.2229,1.755 -1.558,0.7744 -0.6873,1.2144 -2.0351,-0.2046 -1.4779,-1.1357 -1.0637,-0.0383 -0.8433,-2.4927 0.5524,-1.9766 z"
               class="fil32"
               id="_246696872-3"
               inkscape:connector-curvature="0"
               style="fill:#cc3399"
               sodipodi:nodetypes="cccccccccccccccccccccccccc" />
            <path
               d="m 140.311,149.987 c 0.4544,1.4659 0.8965,3.2335 1.1439,5.5391 0.1167,1.0875 0.19,2.2948 0.2007,3.6467 0.3214,-0.6568 0.7746,-1.6681 1.0329,-2.2447 l 0.0523,-0.1168 c 0.0802,-0.0259 0.1643,-0.0653 0.2522,-0.1194 l 0.031,-0.0192 -0.004,0.0314 c -0.0173,0.1477 5e-4,0.2893 0.045,0.418 -0.3875,0.8649 -1.1816,2.6355 -1.4112,2.9248 -0.0189,1.6159 -0.1248,3.4274 -0.3465,5.4715 0,0 0.18025,-0.19155 -0.3105,2.1356 -0.1363,0.1436 -0.2986,0.2111 -0.5096,0.5894 -7e-4,-0.317 0.1829,-1.4601 0.2439,-1.7553 0.0725,-0.3509 0.1051,-0.5533 0.1457,-0.9236 -0.1082,-0.4492 -0.3197,-1.1251 -0.6958,-1.8304 -0.2326,-0.4359 -0.5277,-0.8817 -0.8994,-1.289 0.0182,-0.0755 0.0298,-0.1592 0.0331,-0.2522 0.1504,0.1435 0.3257,0.2124 0.4998,0.2227 0.2969,0.3633 0.541,0.7456 0.7409,1.1203 0.1757,0.3295 0.3175,0.6538 0.4308,0.9544 0.2585,-2.7604 0.297,-5.0704 0.1957,-7.0342 -0.2419,-0.9777 -0.5225,-1.7482 -0.7996,-2.3429 -0.1728,-0.3708 -0.3428,-0.6712 -0.5002,-0.9097 -0.0112,-0.1332 -0.0396,-0.2807 -0.0883,-0.4435 0.0938,-0.0101 0.1763,-0.0309 0.2489,-0.0602 0.2212,0.2906 0.4725,0.6958 0.7236,1.2348 0.0888,0.1908 0.1779,0.3988 0.2661,0.6248 -0.287,-2.6646 -0.8375,-4.6002 -1.3614,-6.1823 0.008,-0.0124 0.0151,-0.0244 0.0224,-0.0374 0.0953,0.4017 0.3375,0.6007 0.6176,0.6473 z"
               class="fil0"
               id="_246696992-5"
               inkscape:connector-curvature="0"
               style="fill:#025373;fill-opacity:1;fill-rule:nonzero"
               sodipodi:nodetypes="ccccccccccccccccccccccccccccccc" />
            <path
               d="m 138.086,161.279 c 0.2706,0.2583 0.684,0.2646 0.9231,0.0141 0.2392,-0.2506 0.2136,-0.6631 -0.057,-0.9215 -0.2707,-0.2584 -0.684,-0.2647 -0.9232,-0.0141 -0.2391,0.2506 -0.2136,0.6632 0.0571,0.9215 z m 4.8912,0.8019 c -48.076903,21.37519 -24.03845,10.68759 0,0 z m 0.0881,-6.9385 c -0.0558,0.3699 0.1766,0.7118 0.5191,0.7634 0.3425,0.0517 0.6654,-0.2064 0.7212,-0.5763 0.0558,-0.37 -0.1766,-0.7119 -0.5191,-0.7635 -0.3426,-0.0517 -0.6655,0.2064 -0.7212,0.5764 z m -4.1474,-7.4 c 0.1402,0.4106 0.5622,0.6382 0.9423,0.5083 0.3801,-0.1299 0.5745,-0.5681 0.4342,-0.9787 -0.1404,-0.4106 -0.5623,-0.6382 -0.9424,-0.5083 -0.3801,0.13 -0.5745,0.5681 -0.4341,0.9787 z m -1.3509,5.4147 c 0.121,0.354 0.4848,0.5502 0.8126,0.4382 0.3277,-0.112 0.4954,-0.4899 0.3744,-0.844 -0.121,-0.354 -0.4848,-0.5502 -0.8126,-0.4382 -0.3278,0.1121 -0.4954,0.4899 -0.3744,0.844 z"
               class="fil17"
               id="_290526600-6"
               inkscape:connector-curvature="0"
               style="fill:#f2c063;fill-opacity:1"
               sodipodi:nodetypes="cccccccccccccscccccccc" />
          </g>
          <path
             transform="translate(4.1167363e-6)"
             id="path1135-2"
             d="m -74.027056,132.92189 c -0.750365,-1.17699 -1.345121,-2.89686 -1.822526,-4.80316 2.653965,-0.0869 9.443373,-4.18168 6.551329,-7.09187 -1.585564,-1.59567 -3.368192,4.50394 -6.677448,6.57297 -0.124318,-0.52694 -0.240105,-1.06517 -0.348215,-1.60768 1.042935,-0.33803 3.145093,-2.34995 1.846682,-3.20512 -0.704934,-0.46418 -0.910735,1.80534 -1.903303,2.91672 -0.179589,-0.92668 -0.337628,-1.86199 -0.477541,-2.77047 2.219238,0.31921 9.760453,-4.72325 6.448933,-7.57665 -1.764576,-1.52039 -3.102756,5.20105 -6.49102,7.30042 -0.07817,-0.51696 -0.150562,-1.02398 -0.217832,-1.51436 1.219377,-0.12255 3.377186,-1.13989 2.562264,-2.29713 -0.458584,-0.65125 -1.395071,1.12567 -2.617188,1.89158 -0.09197,-0.68512 -0.174191,-1.33303 -0.248719,-1.92395 2.220618,0.0682 9.103973,-5.93072 5.442272,-8.34214 -1.941027,-1.2782 -2.406419,5.52623 -5.478139,8.05735 -0.09015,-0.71654 -0.169026,-1.34084 -0.240286,-1.83514 1.074736,-0.22876 3.593334,-2.54708 2.129958,-3.51093 -0.788055,-0.51885 -1.00105,2.11107 -2.165763,3.27041 -0.163595,-1.06096 -0.212628,-1.73165 -0.120646,-2.83706 2.334553,-0.13307 8.924676,-5.96998 5.325016,-8.34044 -1.898864,-1.25076 -2.385732,5.23538 -5.282546,7.88704 0.105059,-1.01843 0.264457,-2.03339 0.417541,-3.04568 3.125394,0.0528 2.267319,-8.98435 0.252969,-9.19211 -1.605309,-0.16556 -3.896754,8.11092 -0.787589,9.10208 -0.16395,1.0795 -0.33446,2.16395 -0.439138,3.25082 -2.32241,-2.62233 -2.125409,-8.43565 -3.930949,-7.50918 -3.408193,1.74853 1.829069,7.52715 3.896665,7.89943 -0.08189,1.04101 -0.05024,1.73992 0.112692,2.75186 -1.099098,-1.00413 -1.540064,-3.23177 -2.191702,-2.69743 -1.228393,1.00732 1.200523,2.84619 2.23912,3.00766 0.06756,0.46166 0.141962,1.04405 0.226198,1.71427 -2.928877,-1.89913 -4.362497,-7.45703 -5.826619,-6.06976 -2.747177,2.6032 3.710193,6.61417 5.880293,6.49491 0.07599,0.60262 0.159819,1.26411 0.253949,1.96413 -1.3908,-0.52396 -2.630905,-2.40767 -3.032286,-1.67001 -0.728679,1.33879 1.950516,2.12057 3.07275,1.96903 0.06538,0.47846 0.135894,0.97355 0.211398,1.47862 -3.68056,-1.38191 -6.533251,-7.25757 -7.839522,-5.39146 -2.429224,3.47013 5.524512,6.42273 7.905345,5.82358 0.141822,0.91746 0.302097,1.86259 0.484675,2.80014 -1.420614,-0.45358 -2.748712,-2.31432 -3.122861,-1.5562 -0.680641,1.37929 2.083234,2.05291 3.178927,1.83862 0.112559,0.56228 0.233246,1.12035 0.363288,1.66682 -3.757545,-1.054 -7.186322,-6.40117 -8.257495,-4.42385 -1.979863,3.65412 5.913443,5.67434 8.381328,4.93046 0.489535,1.94034 1.10149,3.6982 1.877537,4.9152 z"
             class="fil16"
             inkscape:connector-curvature="0"
             style="clip-rule:evenodd;fill:#025373;fill-opacity:1;fill-rule:nonzero;stroke-width:1.52630782;image-rendering:optimizeQuality;shape-rendering:geometricPrecision;text-rendering:geometricPrecision" />
          <g
             transform="matrix(1.3592736,0.31218193,-0.31218193,1.3592736,-159.99476,13.625484)"
             style="clip-rule:evenodd;fill-rule:evenodd;image-rendering:optimizeQuality;shape-rendering:geometricPrecision;text-rendering:geometricPrecision"
             id="_247239240-9">
            <path
               d="m 61.157376,69.878096 c -0.3461,-0.461 -0.6804,-0.9423 -1.0004,-1.4382 0.2755,-1.239 0.7845,-1.8963 1.8346,-2.5834 0.1699,0.1406 0.4635,0.2426 0.7885,0.2686 -0.2906,-0.5276 -0.3969,-1.0151 -0.2392,-1.6053 -0.6035,0.2563 -0.8401,0.6382 -0.783,0.9599 -0.9748,0.6363 -1.5958,1.3104 -1.9265,2.4426 -0.031,-0.0506 -0.0619,-0.1012 -0.0926,-0.152 0.1519,-1.7433 0.3888,-4.8107 1.4835,-6.1968 0.3384,0.1778 0.848,0.1528 1.411,-0.1492 -0.7723,-0.4361 -1.2675,-0.9663 -1.5104,-1.5702 -0.3626,0.5906 -0.3975,1.0844 -0.2187,1.4098 -1.0621,1.3161 -1.3784,3.9395 -1.5518,5.8465 -0.1751,-0.3086 -0.3443,-0.6206 -0.5072,-0.9347 -0.2348,-0.4529 -0.4562,-0.9102 -0.6629,-1.3677 2.2829,-2.6574 1.4087,-5.8376 -0.0634,-6.2077 0.1624,0.8352 0.1179,1.7034 -0.6227,3.0079 -0.1615,0.2844 -0.2337,0.5389 -0.2416,0.85 -0.5272,-1.5662 -0.8403,-3.0593 -0.8728,-4.3192 0.2245,-0.16 0.4322,-0.5774 0.6329,-1.2653 -0.0974,0.0381 -0.1982,0.0705 -0.3028,0.0958 -0.3642,0.0882 -0.6792,0.1778 -0.9827,0.1967 -0.1712,0.0172 -0.3361,0.0227 -0.4949,0.0178 0.2563,0.4991 0.489,0.8205 0.7043,0.9559 0.0538,2.1504 0.8933,4.9448 2.2116,7.6403 -0.7768,-0.6627 -1.1486,-0.9127 -1.7975,-0.9163 -1.4999,-0.008 -2.2748,-0.4027 -2.9178,-0.9597 -0.4115,1.4551 1.6254,3.7381 5.0379,3.1077 0.1141,-0.0211 0.1815,-0.0308 0.2981,-0.035 0.4927,0.8978 1.0356,1.7724 1.6166,2.595 0.2516,0.0474 0.5331,0.1314 0.7699,0.3062 z"
               class="fil0"
               id="_247240992-1"
               inkscape:connector-curvature="0"
               style="fill:#025373;fill-opacity:1;fill-rule:nonzero" />
            <path
               d="m 65.684876,64.401096 c 0.6689,-0.1226 1.1455,0.9673 0.2705,1.4585 0.5359,0.5271 0.4775,1.0099 0.1274,1.2995 -2.7821,1.5623 -6.0127,-3.5331 -1.0051,-4.2136 0.7611,-0.1035 1.3587,0.7263 0.6072,1.4556 z m -11.3244,-11.9352 c -0.1785,-1.015 1.4781,-1.7252 2.213,-0.3938 1.068,-1.0704 2.008,-0.5555 2.2947,0.4705 0.4047,1.4482 -0.3041,3.9788 -2.154,4.4267 -0.3641,0.0882 -0.6815,0.1784 -0.985,0.1973 -2.6236,0.264 -3.7905,-2.1762 -3.5811,-3.7965 0.1492,-1.1544 1.1155,-2.051 2.2124,-0.9042 z m 10.1539,4.2032 c 0.5937,-0.8424 2.2656,-0.1688 1.8398,1.2911 1.5121,0.002 1.8085,1.0311 1.2849,1.9587 -0.7371,1.3054 -3.3216,2.4565 -5.0057,1.5058 -2.2462,-1.268 -2.1477,-3.333 -0.3204,-5.6865 0.7139,-0.9194 2.2409,-0.6557 2.2014,0.9309 z"
               class="fil27"
               id="_247241280-2"
               inkscape:connector-curvature="0"
               style="fill:#f29472;fill-opacity:1" />
          </g>
          <g
             transform="matrix(1.4439422,0,0,1.4439422,-101.72934,145.96475)"
             style="clip-rule:evenodd;fill-rule:evenodd;image-rendering:optimizeQuality;shape-rendering:geometricPrecision;text-rendering:geometricPrecision"
             id="_289972232-7">
            <path
               d="m -4.5861454,-37.899478 c -0.338526,0.457876 -0.721629,1.289046 -1.047772,1.996864 -0.147355,0.31957 -0.28347,0.614947 -0.402726,0.846886 -0.295757,0.575322 -0.696673,1.245325 -1.136547,1.980575 l -0.20765,0.347384 c 0.349194,-0.243083 0.730298,-0.488643 1.094065,-0.695625 0.440827,-0.250704 0.861841,-0.446637 1.182554,-0.518648 0.03686,0.113446 0.08763,0.223366 0.151642,0.327286 -0.275279,0.03791 -0.700674,0.234416 -1.161123,0.496359 -0.604469,0.34386 -1.257708,0.796688 -1.722442,1.160741 -0.434159,0.744014 -0.874224,1.532987 -1.26409,2.341676 0.253561,-0.212793 0.521981,-0.395391 0.79002,-0.549318 0.596659,-0.342622 1.197033,-0.544366 1.629286,-0.619519 0.01067,0.115826 0.03601,0.2307 0.07534,0.341859 -0.393391,0.06449 -0.959093,0.253275 -1.530224,0.581228 -0.503503,0.289185 -1.007291,0.685529 -1.393919,1.198366 -0.207364,0.49693 -0.388247,0.997194 -0.5301726,1.495362 0.2811836,-0.251846 0.7087706,-0.532745 1.2129396,-0.780781 0.991574,-0.487786 1.903326,-0.663621 2.036584,-0.392819 0.133257,0.270896 -0.562559,0.885939 -1.554037,1.373629 -0.793545,0.390343 -1.535844,0.580847 -1.8690356,0.502645 -0.158309,0.764398 -0.20965,1.516984 -0.107825,2.236804 0.223937,-0.303759 0.7704936,-0.70477 1.4604036,-1.044153 0.991574,-0.487786 1.903422,-0.663621 2.036679,-0.392819 0.133163,0.270896 -0.562558,0.885844 -1.554132,1.373629 -0.786306,0.386914 -1.522509,0.577418 -1.8599866,0.504646 0.06172,0.261086 0.7093218,2.340796 0.8180038,2.590547 l -0.6861148,-0.290934 c -0.206221,-0.47426 -0.528899,-2.359527 -0.584241,-2.864458 -0.317284,0.03315 -0.970523,-0.633712 -1.527938,-1.580136 -0.603517,-1.024912 -0.865841,-1.989339 -0.585895,-2.15422 0.280041,-0.164882 0.996241,0.532363 1.599758,1.55718 0.211079,0.358529 0.380437,0.709533 0.499407,1.021578 0.04124,-0.542079 0.145354,-1.092541 0.296519,-1.644431 -0.334144,-0.04334 -0.944614,-0.686958 -1.469929,-1.578898 -0.603613,-1.024912 -0.865842,-1.989339 -0.585896,-2.15422 0.279946,-0.164881 0.996146,0.532268 1.599663,1.55718 0.335192,0.569036 0.565035,1.119498 0.655334,1.5247 0.4580666,-1.362962 1.1637896,-2.718493 1.8775126,-3.962771 0.164215,-0.446732 0.251561,-0.946043 0.279374,-1.418017 0.02686,-0.456067 -0.0019,-0.882987 -0.0703,-1.20932 0.112303,-0.05429 0.217747,-0.119827 0.314713,-0.195076 0.09439,0.370816 0.13783,0.881557 0.105825,1.42497 -0.0074,0.125924 -0.01876,0.253752 -0.03467,0.382342 0.09573,-0.160595 0.190314,-0.318809 0.283185,-0.473879 0.433492,-0.724582 0.828883,-1.38525 1.121212,-1.952952 0.161357,-0.442732 0.17031,-1.030628 0.08687,-1.576993 -0.07087,-0.463402 -0.205458,-0.889369 -0.367101,-1.163409 0.110397,-0.04096 0.214412,-0.09439 0.310045,-0.158594 0.182694,0.320999 0.329858,0.780876 0.404536,1.269805 0.02991,0.195552 0.04867,0.396915 0.05382,0.596944 0.324143,-0.70115 0.693721,-1.476216 1.051678,-1.932092 0.06553,0.09859 0.14164,0.190027 0.226795,0.272897 z"
               class="fil40"
               id="_289952144-0"
               inkscape:connector-curvature="0"
               style="fill:#025373;fill-opacity:1;fill-rule:nonzero;stroke-width:0.95252043"
               sodipodi:nodetypes="cccccccccccccccccccccccccccccccccccscccccccccccccccccc" />
            <path
               d="m -8.3789864,-40.487571 c -0.02791,-0.05191 0.07773,-0.05506 0.124114,-0.03181 0.01314,-0.06144 -0.02429,-0.36653 0.206887,-0.09697 0.02496,-0.024 -0.01553,-0.200887 0.01772,-0.19079 0.02172,0.0066 0.120017,0.105444 0.137925,0.11716 0.0261,-0.01343 0.03124,-0.182122 0.0561,-0.201268 0.04029,-0.03115 0.09049,0.07353 0.163739,0.0823 0.04277,0.0052 0.07715,-0.222699 0.154403,-0.128114 0.298806,0.366244 -0.452923,1.208272 -0.860888,0.449495 z"
               class="fil41"
               id="_289951784-9"
               inkscape:connector-curvature="0"
               style="fill:#663333;stroke-width:0.95252043" />
            <path
               d="m -2.7173004,-40.777519 c 0.0362,-0.05934 0.102396,0.04629 0.106397,0.107445 0.07039,-0.02334 0.358529,-0.243465 0.222223,0.152498 0.03924,0.01114 0.195076,-0.135639 0.204601,-0.09573 0.0063,0.026 -0.03562,0.185075 -0.03696,0.210221 0.02934,0.01857 0.203935,-0.07687 0.238321,-0.06296 0.05563,0.02238 -0.02086,0.135925 0.01391,0.215746 0.02029,0.04648 0.272706,-0.05439 0.222509,0.08068 -0.19441,0.522457 -1.499649,0.259943 -0.971,-0.607899 z"
               class="fil41"
               id="_289952120-3"
               inkscape:connector-curvature="0"
               style="fill:#663333;stroke-width:0.95252043" />
            <path
               d="m -2.3238134,-35.168031 c 0.05696,-0.02096 0.04496,0.08725 0.01457,0.131258 0.06077,0.02219 0.377484,0.028 0.06915,0.224985 0.02086,0.02896 0.207173,0.01315 0.192028,0.04563 -0.0098,0.02124 -0.124875,0.107254 -0.139354,0.123827 0.0099,0.02858 0.18117,0.0581 0.197172,0.0863 0.026,0.04553 -0.08801,0.08173 -0.107635,0.155165 -0.01133,0.04286 0.216222,0.110874 0.108492,0.176026 -0.416727,0.252037 -1.167409,-0.636379 -0.334429,-0.943186 z"
               class="fil41"
               id="_289952264-6"
               inkscape:connector-curvature="0"
               style="fill:#663333;stroke-width:0.95252043" />
            <path
               d="m -10.399282,-37.381498 c -0.03362,-0.06239 0.09344,-0.0662 0.14926,-0.0382 0.01581,-0.07391 -0.02924,-0.441017 0.248894,-0.116779 0.03,-0.02877 -0.01867,-0.241654 0.02124,-0.229462 0.02619,0.0079 0.144497,0.126876 0.165929,0.140973 0.03143,-0.01619 0.03762,-0.21908 0.06753,-0.242131 0.04839,-0.03743 0.108873,0.08849 0.196981,0.09906 0.05144,0.0062 0.09287,-0.26804 0.185742,-0.154118 0.359385,0.44054 -0.544937,1.453355 -1.035581,0.54065 z"
               class="fil41"
               id="_289951424-0"
               inkscape:connector-curvature="0"
               style="fill:#663333;stroke-width:0.95252043" />
            <path
               d="m -3.9926294,-31.63599 c 0.05372,-0.01981 0.04239,0.08239 0.01372,0.123923 0.05734,0.02096 0.356338,0.02648 0.06525,0.212508 0.01972,0.02724 0.195647,0.01238 0.18136,0.04296 -0.0093,0.0201 -0.117922,0.101348 -0.131639,0.116875 0.0094,0.02705 0.171168,0.05486 0.186218,0.08154 0.02448,0.04296 -0.08315,0.07715 -0.101634,0.146498 -0.01076,0.04048 0.204125,0.104682 0.102491,0.166215 -0.393486,0.237844 -1.102161,-0.60085 -0.31576,-0.890512 z"
               class="fil41"
               id="_289951256-6"
               inkscape:connector-curvature="0"
               style="fill:#663333;stroke-width:0.95252043" />
            <path
               d="m -7.1558544,-40.654834 c 0.804022,0 1.455737,0.626663 1.455737,1.399729 0,0.773065 -0.651715,1.399728 -1.455737,1.399728 -0.804118,0 -1.455833,-0.626663 -1.455833,-1.399728 0,-0.38901 0.165072,-0.740966 0.431492,-0.994622 0.294424,0.203553 0.640856,-0.08154 0.715724,-0.373579 0.09954,-0.02057 0.202696,-0.03153 0.308617,-0.03153 z"
               class="fil42"
               id="_289950992-2"
               inkscape:connector-curvature="0"
               style="fill:#fb5d5a;fill-opacity:1;stroke-width:0.95252043" />
            <path
               d="m -3.3649184,-40.711033 c 0.199076,0 0.390247,0.03277 0.567988,0.09268 -0.233558,0.602755 0.491881,0.846124 0.865936,0.649905 0.178979,0.26061 0.283184,0.572846 0.283184,0.908419 0,0.911848 -0.768684,1.651099 -1.717108,1.651099 -0.94833,0 -1.717109,-0.739251 -1.717109,-1.651099 0,-0.911753 0.768779,-1.651004 1.717109,-1.651004 z"
               class="fil42"
               id="_289951328-6"
               inkscape:connector-curvature="0"
               style="fill:#fb5d5a;fill-opacity:1;stroke-width:0.95252043" />
            <path
               d="m -2.8031224,-35.474171 c 0.136306,0.108111 0.249275,0.234225 0.338431,0.371769 -0.487119,0.285661 -0.122875,0.846124 0.239654,0.914991 -0.01905,0.275564 -0.11716,0.545794 -0.299473,0.775447 -0.495024,0.623996 -1.422494,0.712485 -2.071541,0.197553 -0.649047,-0.514933 -0.773637,-1.438211 -0.278612,-2.062302 0.49512,-0.623996 1.422589,-0.71239 2.071541,-0.197458 z"
               class="fil42"
               id="_290531808-1"
               inkscape:connector-curvature="0"
               style="fill:#fb5d5a;fill-opacity:1;stroke-width:0.95252043" />
            <path
               d="m -8.9279234,-37.582765 c 0.967094,0 1.751113,0.75392 1.751113,1.68377 0,0.929946 -0.784019,1.683866 -1.751113,1.683866 -0.967285,0 -1.7513036,-0.75392 -1.7513036,-1.683866 0,-0.467878 0.198505,-0.891178 0.519028,-1.196365 0.3542416,0.244988 0.7710646,-0.09802 0.8610776,-0.449304 0.119637,-0.02486 0.24375,-0.0381 0.371198,-0.0381 z"
               class="fil42"
               id="_245440800-8"
               inkscape:connector-curvature="0"
               style="fill:#fb5d5a;fill-opacity:1;stroke-width:0.95252043" />
            <path
               d="m -4.4450764,-31.924984 c 0.12859,0.10211 0.235272,0.221175 0.31938,0.351003 -0.459877,0.269659 -0.116017,0.798784 0.226318,0.863746 -0.018,0.260133 -0.110682,0.515314 -0.282708,0.732202 -0.467401,0.589039 -1.343053,0.672575 -1.95581,0.186409 -0.612661,-0.486167 -0.730392,-1.357818 -0.262991,-1.946857 0.467402,-0.589134 1.343054,-0.67267 1.955811,-0.186503 z"
               class="fil42"
               id="_289965848-7"
               inkscape:connector-curvature="0"
               style="fill:#fb5d5a;fill-opacity:1;stroke-width:0.95252043" />
          </g>
          <path
             transform="translate(4.1167363e-6)"
             id="path1090-9"
             d="m -107.91146,66.972528 c 0.13997,-0.385321 0.2851,-0.769363 0.41564,-1.157912 -2.08662,-2.109554 0.16124,-3.38372 1.81579,-5.382194 0.62339,-0.753204 0.45101,-0.861224 0.56946,0.116135 0.33155,2.733501 1.529,5.313446 -2.02576,5.410479 -0.11389,0.337342 -0.23863,0.671626 -0.36098,1.006004 1.82937,-0.0132 3.08253,0.08485 4.84256,0.431468 2.20915,-2.842809 3.96209,0.311034 6.627189,1.986669 1.004243,0.631576 1.107088,0.406871 -0.05005,0.703484 -3.10719,0.796 -5.784159,1.879615 -6.602349,-1.754424 -1.14647,-0.270925 -2.23492,-0.434892 -3.27482,-0.510804 0.18718,0.363844 0.37252,0.728904 0.56899,1.087588 3.59816,-0.125313 2.88525,2.927727 3.30629,6.047567 0.15888,1.175528 0.39702,1.1106 -0.57211,0.412293 -2.71055,-1.953172 -5.99671,-3.007823 -3.15878,-6.25794 -0.23778,-0.435607 -0.46068,-0.880333 -0.68873,-1.321427 -2.48132,-0.109955 -4.68589,0.280515 -6.74537,0.908682 0.25252,0.372277 0.50311,0.746732 0.76534,1.11222 3.74543,-0.588712 3.38837,2.693695 4.22543,5.901461 0.3155,1.208796 0.55634,1.110563 -0.54571,0.503714 -3.08191,-1.697187 -6.65134,-2.381702 -4.09791,-6.140306 -0.28713,-0.401548 -0.56163,-0.813252 -0.83902,-1.22179 -1.87362,0.611324 -3.66915,1.420896 -5.46866,2.217605 0.31035,0.32913 0.61952,0.659901 0.93849,0.980732 3.95886,-1.294001 4.14606,2.328244 5.61533,5.660484 0.5538,1.255691 0.79776,1.107229 -0.50318,0.64224 -3.63942,-1.301039 -7.6304,-1.418708 -5.51907,-5.941956 -0.3594,-0.362726 -0.70793,-0.737473 -1.05848,-1.108943 -1.04694,0.45893 -0.64291,0.493758 -7.76921,4.705845 l 0.43473,-1.090161 c 1.05394,-0.54251 6.21702,-3.999945 7.33919,-4.49478 0.14602,-0.426391 0.2947,-0.852396 0.42971,-1.282405 -2.79434,-2.711142 0.12033,-4.443386 2.23693,-7.109874 0.7974,-1.004781 0.56838,-1.141851 0.75019,0.137185 0.50868,3.57691 2.14914,6.929313 -2.51155,7.152393 -0.0846,0.268041 -0.17154,0.525829 -0.27311,0.823069 1.7475,-0.774211 3.51295,-1.555813 5.39742,-2.150405 0.11209,-0.306789 0.20372,-0.558281 0.29317,-0.824627 -2.33098,-2.356501 0.18011,-3.779942 2.02844,-6.012426 0.6964,-0.841484 0.50377,-0.962136 0.63617,0.129767 0.37046,3.053379 1.70802,5.935586 -2.26293,6.044018 -0.0567,0.167809 -0.11446,0.330847 -0.17785,0.50603 1.64004,-0.480828 3.37508,-0.810162 5.26946,-0.864493 z"
             class="fil0"
             inkscape:connector-curvature="0"
             style="clip-rule:evenodd;fill:#025373;fill-opacity:1;fill-rule:nonzero;stroke-width:1.08454943;image-rendering:optimizeQuality;shape-rendering:geometricPrecision;text-rendering:geometricPrecision"
             sodipodi:nodetypes="cccccccccccccccccccccccccccccccccccccccccccc"
             inkscape:transform-center-x="19.510675"
             inkscape:transform-center-y="-8.0180877" />
          <g
             transform="matrix(1.0974367,0,0,1.0974367,-221.46089,51.369035)"
             style="clip-rule:evenodd;fill-rule:evenodd;image-rendering:optimizeQuality;shape-rendering:geometricPrecision;text-rendering:geometricPrecision"
             id="_247243200-0">
            <path
               d="m 88.655638,35.476048 c -3.686494,-0.06419 -2.024704,-3.632729 -0.21726,-1.561567 -0.897498,-3.371341 2.762397,-2.255744 1.572543,-0.23648 1.783838,-2.011355 3.079599,1.278413 0.469677,1.354002 2.127537,0.318291 0.08089,4.063048 -1.82496,0.444045 z m 12.833432,-8.713936 c -1.96143,-3.122024 1.93519,-3.681054 1.18878,-1.035405 2.33236,-2.594604 3.39896,1.079938 1.05767,1.187501 2.6593,0.39424 0.61293,3.27758 -0.877,1.13337 0.89639,1.955545 -3.358039,2.288755 -1.36945,-1.285466 z m -5.530472,1.562996 c -3.102644,-1.991868 0.186481,-4.154604 0.635764,-1.44267 1.00818,-3.339903 3.535678,-0.46744 1.462157,0.625188 2.574711,-0.773749 1.948391,2.705956 -0.31185,1.398771 1.642783,1.38887 -2.066383,3.499239 -1.786071,-0.581289 z m -4.464047,2.90526 c -3.490937,-1.185963 -0.819602,-4.077323 0.26967,-1.553216 0.173977,-3.484545 3.318958,-1.305388 1.569705,0.254633 2.31244,-1.371162 2.54259,2.156973 0.03417,1.43259 1.928908,0.952344 -1.162812,3.894043 -1.873548,-0.134007 z"
               class="fil21"
               id="_247243128-2"
               inkscape:connector-curvature="0"
               style="fill:#f2c063;fill-opacity:1" />
            <path
               d="m 86.955264,39.619552 c 0.557292,-1.243147 1.195848,-2.513221 1.930798,-3.743855 -0.07666,-0.122295 -0.153466,-0.254508 -0.229942,-0.399783 -0.09425,-0.0016 -0.184196,-0.0061 -0.271467,-0.0122 -0.755413,1.255693 -1.410824,2.551488 -1.982263,3.820022 z m 3.839376,-6.527055 c 0.288745,-0.364002 0.588988,-0.718317 0.900778,-1.060884 -0.07296,-0.213996 -0.136525,-0.460054 -0.188657,-0.740192 -0.442911,0.466487 -0.863281,0.955586 -1.262165,1.461984 0.02935,0.271288 -0.03312,0.584976 -0.233193,0.924463 0.277136,-0.312548 0.5425,-0.496925 0.783237,-0.585371 z M 94.319557,29.6124 c 0.524696,-0.40371 1.063967,-0.767459 1.628787,-1.083076 0.0026,-0.06649 0.0059,-0.134238 0.01074,-0.204349 -0.156914,-0.10073 -0.29671,-0.201835 -0.422069,-0.302884 -0.593653,0.339669 -1.160582,0.729844 -1.71251,1.161522 -0.065,0.24861 -0.218518,0.505815 -0.490093,0.748039 0.388205,-0.230165 0.717364,-0.321892 0.985149,-0.319252 z m 4.629832,-2.205018 c 0.721304,-0.147019 1.492081,-0.224298 2.325541,-0.222316 0.0616,-0.134695 0.13235,-0.275218 0.21462,-0.423087 -0.0472,-0.07503 -0.0899,-0.148192 -0.13051,-0.220286 -0.9322,-0.0086 -1.790814,0.07708 -2.592361,0.244205 -0.109959,0.267263 -0.334044,0.523644 -0.709678,0.721595 0.358073,-0.107605 0.653995,-0.132664 0.892388,-0.100111 z"
               class="fil22"
               id="_247244016-3"
               inkscape:connector-curvature="0"
               style="fill:#025373;fill-opacity:1;fill-rule:nonzero" />
          </g>
          <path
             transform="translate(4.1167363e-6)"
             id="path1182-7"
             d="m -40.375319,60.593387 c -0.0024,-14.562805 -13.13187,-8.081632 -1.27529,-0.477075 -2.050548,-0.731501 -4.368623,-1.385776 -6.925809,-1.844268 -3.134622,-14.287529 -14.545775,-4.229893 -1.366225,-0.222269 -1.866918,-0.27331 -3.851051,-0.438223 -5.94241,-0.45293 -12.733985,-8.801045 -10.974908,7.950769 -0.124096,0.615236 1.655145,0.0071 3.242499,0.109325 4.757427,0.285549 -13.815424,1.166651 -4.169836,13.497232 1.175422,0.15342 2.089405,0.302374 4.030865,0.74243 5.810066,1.259235 -14.441364,0.940153 -4.677159,13.648227 0.726029,0.217695 2.065712,0.640076 3.898078,1.378487 5.473535,2.114015 -14.148043,1.017491 -4.589587,13.473785 0.807968,0.387567 0.240657,0.118622 5.382433,2.698185 5.390329,2.69678 l -0.296941,-1.460095 z"
             class="fil31"
             inkscape:connector-curvature="0"
             style="clip-rule:evenodd;fill:#025373;fill-opacity:1;fill-rule:nonzero;stroke-width:1.40142298;image-rendering:optimizeQuality;shape-rendering:geometricPrecision;text-rendering:geometricPrecision"
             inkscape:transform-center-x="1.3942798"
             inkscape:transform-center-y="14.517211"
             sodipodi:nodetypes="ccccccccccccccc" />
          <g
             transform="matrix(-0.81613455,0.86389251,-0.86389251,-0.81613455,-20.692469,104.73017)"
             style="clip-rule:evenodd;fill-rule:evenodd;image-rendering:optimizeQuality;shape-rendering:geometricPrecision;text-rendering:geometricPrecision"
             id="_246697760-2">
            <path
               d="m 11.6551,72.4285 c -0.2221,-0.1637 -0.4482,-0.3224 -0.674,-0.4709 0.126,-0.1608 0.224,-0.3427 0.289,-0.5376 0.2509,0.1633 0.5011,0.3384 0.7459,0.5188 0.6617,0.4874 1.2871,1.0163 1.7739,1.4531 -0.2417,-0.6925 -0.5258,-1.4232 -0.8313,-2.1421 -0.6055,-1.4257 -1.2912,-2.7977 -1.8904,-3.7256 0.1722,-0.1199 0.3205,-0.2687 0.4394,-0.4378 0.6399,0.9671 1.3726,2.4218 2.0119,3.9268 0.2555,0.6017 0.4969,1.2126 0.7119,1.805 -0.0881,-1.4062 -0.2313,-3.5909 -0.3693,-5.5432 -0.0843,-1.1922 -0.1673,-2.3073 -0.2358,-3.1234 0.1972,0.0346 0.4032,0.0362 0.6108,2e-4 0.0675,0.812 0.1489,1.9082 0.2318,3.0803 0.1032,1.4618 0.2082,3.0275 0.2912,4.3078 0.3045,-1.9719 0.9429,-3.7649 2.2211,-4.7042 0.1117,0.175 0.2523,0.3273 0.4139,0.4517 -1.2306,0.8563 -1.8186,2.6603 -2.0837,4.6478 0.2151,-0.2139 0.4483,-0.4114 0.6995,-0.5877 0.4183,-0.2934 0.8855,-0.5275 1.3993,-0.679 0.0058,0.0418 0.013,0.0838 0.0219,0.1258 0.0345,0.1625 0.0903,0.3151 0.1636,0.4555 -0.4538,0.1318 -0.8659,0.3375 -1.2346,0.5961 -3.155462,4.395768 2.028236,16.818601 2.240343,18.009291 L 16.638907,89.63026 C 15.726007,87.14376 14.1489,80.3195 11.9048,78.4743 c 0.1544,-0.2244 0.2569,-0.4822 0.2978,-0.7531 0.6742,0.5773 1.8599,1.4872 2.5301,2.682 -0.9937,-4.1722 0.4565,-5.3342 -3.0776,-7.9747 z"
               class="fil23"
               id="_247239432-8"
               inkscape:connector-curvature="0"
               style="fill:#025373;fill-opacity:1;fill-rule:nonzero"
               sodipodi:nodetypes="ccccccccccccccccccccccccccccc" />
            <path
               d="m 20.9161,70.0545 c 0.2043,0.962 -0.41,1.9076 -1.3721,2.1119 -0.962,0.2043 -1.9076,-0.4101 -2.1119,-1.3721 -0.2043,-0.962 0.41,-1.9076 1.3721,-2.1119 0.9621,-0.2043 1.9076,0.41 2.1119,1.3721 z"
               class="fil5"
               id="_247240248-7"
               inkscape:connector-curvature="0"
               style="fill:#ff5bad;fill-opacity:1" />
            <path
               d="m 20.2244,65.5073 c 0.2043,0.9622 -0.41,1.9076 -1.3722,2.1119 -0.962,0.2042 -1.9076,-0.4101 -2.1119,-1.3721 -0.2042,-0.9621 0.4101,-1.9076 1.3722,-2.112 0.9621,-0.2042 1.9076,0.4102 2.1119,1.3722 z"
               class="fil5"
               id="_247240512-3"
               inkscape:connector-curvature="0"
               style="fill:#ff5bad;fill-opacity:1" />
            <path
               d="m 15.6758,62.0273 c 0.2043,0.962 -0.4101,1.9075 -1.3721,2.1118 -0.962,0.2044 -1.9076,-0.4101 -2.1119,-1.3721 -0.2043,-0.9621 0.4101,-1.9076 1.3722,-2.1119 0.962,-0.2042 1.9076,0.41 2.1118,1.3722 z"
               class="fil5"
               id="_247240608-6"
               inkscape:connector-curvature="0"
               style="fill:#ff5bad;fill-opacity:1" />
            <path
               d="m 11.7931,65.6919 c 0.2043,0.9622 -0.41,1.9077 -1.3721,2.1119 -0.9621,0.2043 -1.9076,-0.41 -2.1119,-1.372 -0.2042,-0.9622 0.4101,-1.9078 1.372,-2.112 0.9622,-0.2043 1.9077,0.4102 2.112,1.3721 z"
               class="fil5"
               id="_247240104-1"
               inkscape:connector-curvature="0"
               style="fill:#ff5bad;fill-opacity:1" />
            <path
               d="m 11.3217,70.489 c 0.2043,0.9621 -0.41,1.9077 -1.372,2.1119 -0.9622,0.2043 -1.9077,-0.4101 -2.112,-1.3721 -0.2042,-0.962 0.4101,-1.9076 1.3721,-2.1119 0.9621,-0.2042 1.9076,0.41 2.1119,1.3721 z"
               class="fil5"
               id="_247241256-2"
               inkscape:connector-curvature="0"
               style="fill:#ff5bad;fill-opacity:1" />
            <path
               d="m 8.7321,78.0577 c 0.333,0.9349 1.3611,1.4229 2.2962,1.0897 0.9349,-0.333 1.4228,-1.3611 1.0897,-2.2961 -0.3332,-0.935 -1.3612,-1.423 -2.2962,-1.0899 -0.9349,0.3332 -1.4229,1.3613 -1.0897,2.2963 z"
               class="fil5"
               id="_247241400-9"
               inkscape:connector-curvature="0"
               style="fill:#ff5bad;fill-opacity:1" />
          </g>
          <g
             transform="matrix(-1.3454787,-0.59791463,0.59791463,-1.3454787,-24.079222,191.34609)"
             style="clip-rule:evenodd;fill-rule:evenodd;image-rendering:optimizeQuality;shape-rendering:geometricPrecision;text-rendering:geometricPrecision"
             id="_289952816-3">
            <path
               d="m 64.5492,66.1308 c -0.0704,-0.2199 -0.1435,-0.4444 -0.2137,-0.6557 -0.088,-0.2651 -0.1719,-0.5113 -0.2405,-0.7036 0.0751,-0.0092 0.1474,-0.0421 0.2057,-0.095 0.0701,0.1966 0.1572,0.4518 0.2488,0.7276 0.0838,0.2523 0.1709,0.5207 0.2522,0.776 l -0.0171,0.0129 c -0.0755,0.0544 -0.1558,0.0135 -0.2354,-0.0622 z m 1.4089,-0.2981 c 0.0326,-0.1415 0.0647,-0.2823 0.0951,-0.4174 0.0727,-0.3227 0.1407,-0.6357 0.1927,-0.8969 0.0725,0.0327 0.1515,0.0385 0.2258,0.0212 -0.0508,0.2573 -0.1171,0.5634 -0.1879,0.8795 -0.0908,0.1088 -0.186,0.2718 -0.3257,0.4136 z m -0.722,-0.5294 -0.088,-1.0823 c 0.0766,0.0112 0.1551,-0.0034 0.2237,-0.04 l 0.1227,1.5084 c -0.0809,-0.1718 -0.16,-0.3587 -0.2584,-0.3861 z"
               class="fil37"
               id="_249246576-1"
               inkscape:connector-curvature="0"
               style="fill:#a2a2a3;fill-rule:nonzero" />
            <path
               d="m 66.0316,72.2309 c 0.028,1.0334 -0.0053,1.9754 -0.0897,2.845 0.2204,-0.2622 0.477,-0.4407 0.7365,-0.5472 0.2413,-0.0991 0.4873,-0.1362 0.7115,-0.1198 0.2605,0.0189 0.5133,0.1108 0.7017,0.2934 0.2123,0.2068 0.3086,0.5065 0.2096,0.8695 -0.025,0.0919 -0.0687,0.1783 -0.1263,0.2544 -0.0908,0.12 -0.2192,0.2187 -0.3654,0.2762 -0.1492,0.0587 -0.3179,0.0751 -0.486,0.0291 -0.0818,-0.0224 -0.2589,-0.1056 -0.3376,-0.1612 -0.156,-0.1098 -0.2297,-0.2794 -0.1657,-0.4051 0.073,-0.1435 0.2981,-0.1759 0.5021,-0.0723 0.3685,0.1873 0.4307,0.0345 0.4775,-0.0731 0.1754,-0.4036 -0.0522,-0.6015 -0.4373,-0.6293 -0.1675,-0.0122 -0.3536,0.0165 -0.5388,0.0925 -0.416,0.1707 -0.8233,0.5796 -1.0228,1.3034 -0.1088,0.6873 -0.2516,1.3283 -0.4229,1.9345 0.3459,-0.4297 0.7575,-0.7584 1.2775,-0.8727 0.2314,-0.0508 0.4422,-0.0429 0.6273,0.0077 0.2223,0.0606 0.4061,0.1819 0.5447,0.3365 0.1379,0.1538 0.2314,0.3416 0.274,0.5353 0.0375,0.1702 0.0357,0.3468 -0.009,0.5111 -0.0299,0.1095 -0.0822,0.213 -0.1513,0.3042 -0.1095,0.1447 -0.2639,0.2633 -0.44,0.3327 -0.2801,0.1103 -0.5952,0.0697 -0.8604,-0.065 -0.2041,-0.1038 -0.3105,-0.3045 -0.2375,-0.4483 0.0731,-0.1436 0.2981,-0.1762 0.5021,-0.0723 0.333,0.1695 0.5225,0.1939 0.6632,0.0389 0.0836,-0.0919 0.2325,-0.1854 0.1591,-0.5196 C 67.699,78.079 67.636,77.9525 67.543,77.8489 67.4507,77.7459 67.3287,77.6651 67.1819,77.625 67.0538,77.59 66.9046,77.5852 66.7371,77.6221 c -0.9428,0.2073 -1.5165,1.367 -2.0228,2.3965 -0.6309,1.5109 -1.4322,2.8513 -2.2794,4.2688 -0.4146,0.6937 -0.8052,1.4458 -1.2341,2.1179 L 60.878,86.1985 c 0.4255,-0.6673 0.8167,-1.4189 1.2289,-2.1085 1.1414,-1.9099 2.1978,-3.6778 2.8568,-5.9242 0.0247,-0.2306 0.0066,-0.5038 -0.0512,-0.7758 -0.0914,-0.43 -0.2815,-0.846 -0.557,-1.0744 -0.0995,-0.0825 -0.2006,-0.1307 -0.297,-0.1513 -0.1091,-0.0232 -0.2162,-0.0114 -0.3115,0.0249 -0.2542,0.097 -0.372,0.298 -0.3094,0.4822 0.0392,0.115 0.0887,0.3036 0.4053,0.2105 0.2195,-0.0646 0.4347,0.0084 0.4804,0.1631 0.0454,0.1545 -0.096,0.3326 -0.3156,0.3971 -0.1121,0.033 -0.2609,0.0279 -0.3754,0.0035 -0.1704,-0.0363 -0.3125,-0.1279 -0.4181,-0.248 -0.1036,-0.1181 -0.1723,-0.2646 -0.1982,-0.4131 -0.0164,-0.0943 -0.0157,-0.1914 0.0041,-0.2844 0.0294,-0.1383 0.0953,-0.2689 0.1871,-0.3797 0.1046,-0.1262 0.2439,-0.2285 0.4025,-0.2889 0.1604,-0.0612 0.3419,-0.0807 0.5287,-0.0409 0.1546,0.033 0.3116,0.1063 0.461,0.2302 0.2994,0.2483 0.5143,0.653 0.6366,1.0843 0.028,-0.1267 0.0545,-0.2555 0.08,-0.3856 0.0218,-0.2141 0.0575,-0.4114 0.1049,-0.5927 0.0429,-0.2698 0.0804,-0.5467 0.1123,-0.8316 0.0235,-0.2978 0.0196,-0.6715 -0.0432,-1.0086 -0.0551,-0.2959 -0.1536,-0.5572 -0.3156,-0.6915 -0.0673,-0.0557 -0.1349,-0.0881 -0.1989,-0.1018 -0.1572,-0.0337 -0.2655,-0.0321 -0.3372,0.0371 -0.0709,0.0686 -0.1085,0.2036 0.2485,0.3851 0.204,0.1039 0.3262,0.3136 0.2376,0.4484 -0.2146,0.3262 -0.6476,0.054 -0.8009,-0.1208 -0.0829,-0.0944 -0.138,-0.2115 -0.1586,-0.3301 -0.0131,-0.0759 -0.0125,-0.1544 0.0035,-0.2297 0.0236,-0.1104 0.0758,-0.2144 0.1487,-0.3026 0.0828,-0.0999 0.1932,-0.1809 0.3185,-0.2287 0.1271,-0.0486 0.2714,-0.064 0.4198,-0.0324 0.1221,0.026 0.2458,0.0837 0.3629,0.1807 0.0914,0.0758 0.168,0.1721 0.2316,0.283 0.0118,-0.4257 0.0122,-0.8678 1e-4,-1.3286 -0.2937,-0.0863 -0.4839,-0.4229 -0.5236,-0.6389 0.2667,0.1375 0.5743,0.1567 0.9275,-0.005 0.1412,-0.0646 0.2643,-0.1464 0.372,-0.2418 0.0579,0.3835 -0.1126,0.7377 -0.3943,0.8619 z"
               class="fil38"
               id="_249244800-9"
               inkscape:connector-curvature="0"
               style="fill:#025373;fill-opacity:1;fill-rule:nonzero" />
            <path
               d="m 63.6159,68.4201 c -0.1121,-0.6239 -0.3354,-0.8359 -0.8454,-1.4386 -0.5273,-0.6231 0.6642,0.0207 1.0323,-0.1933 0.2023,-0.1177 0.0843,-0.8681 0.3081,-1.0381 0.1637,-0.1243 0.4414,0.6102 0.6738,0.4429 0.32,-0.2301 0.0909,-0.7497 0.3857,-0.8837 0.2492,-0.1132 0.3708,0.8325 0.6277,0.6581 0.3892,-0.2641 0.4907,-0.7629 0.7444,-0.6564 0.0937,0.0395 0.1569,0.7074 0.2697,0.7532 0.1412,0.0575 0.9372,-0.6975 1.1147,-0.2712 0.0751,0.1802 -0.439,1.1118 -0.5435,1.3693 -0.393,0.9688 0.2284,3.7355 -1.3295,4.4486 -1.6263,0.7443 -2.2855,-2.3418 -2.438,-3.1908 z"
               class="fil8"
               id="_249245256-4"
               inkscape:connector-curvature="0"
               style="fill:#cc3a69" />
            <path
               d="m 64.9869,70.976 c 0.0241,0.0575 0.0905,0.0845 0.148,0.0604 0.0574,-0.0241 0.0845,-0.0905 0.0604,-0.148 l -0.319,-0.7582 c -0.0242,-0.0575 -0.0905,-0.0846 -0.148,-0.0604 -0.0575,0.0241 -0.0845,0.0904 -0.0604,0.1479 z"
               class="fil39"
               id="_289947704-7"
               inkscape:connector-curvature="0"
               style="fill:#98274b;fill-rule:nonzero" />
            <path
               d="m 66.2915,69.8273 c 0.0084,-0.0618 0.0655,-0.1051 0.1273,-0.0967 0.0618,0.0085 0.1051,0.0656 0.0966,0.1273 l -0.1119,0.8151 c -0.0084,0.0617 -0.0655,0.105 -0.1272,0.0966 -0.0618,-0.0085 -0.1051,-0.0655 -0.0967,-0.1273 z"
               class="fil39"
               id="_250101064-8"
               inkscape:connector-curvature="0"
               style="fill:#98274b;fill-rule:nonzero" />
            <path
               d="m 65.4745,70.0178 c -0.0092,-0.0616 0.0334,-0.1192 0.0951,-0.1285 0.0616,-0.0092 0.1192,0.0334 0.1284,0.0951 l 0.1214,0.8136 c 0.0093,0.0617 -0.0334,0.1193 -0.095,0.1285 -0.0617,0.0093 -0.1192,-0.0334 -0.1285,-0.095 z"
               class="fil39"
               id="_249242640-4"
               inkscape:connector-curvature="0"
               style="fill:#98274b;fill-rule:nonzero" />
            <path
               d="m 64.5295,69.4067 c 0.0241,0.0575 0.0905,0.0845 0.1479,0.0604 0.0575,-0.0242 0.0846,-0.0905 0.0604,-0.148 l -0.319,-0.7583 c -0.0241,-0.0575 -0.0904,-0.0845 -0.1479,-0.0604 -0.0575,0.0242 -0.0845,0.0905 -0.0604,0.148 z"
               class="fil39"
               id="_289961144-5"
               inkscape:connector-curvature="0"
               style="fill:#98274b;fill-rule:nonzero" />
            <path
               d="m 66.2948,68.3011 c 0.0085,-0.0617 0.0656,-0.105 0.1273,-0.0966 0.0618,0.0085 0.1051,0.0655 0.0967,0.1273 l -0.1119,0.815 c -0.0084,0.0618 -0.0655,0.1051 -0.1273,0.0966 -0.0618,-0.0084 -0.1051,-0.0655 -0.0966,-0.1272 z"
               class="fil39"
               id="_246699440-0"
               inkscape:connector-curvature="0"
               style="fill:#98274b;fill-rule:nonzero" />
            <path
               d="m 65.3145,68.331 c -0.0093,-0.0617 0.0334,-0.1193 0.095,-0.1285 0.0617,-0.0093 0.1193,0.0334 0.1285,0.095 l 0.1214,0.8137 c 0.0092,0.0616 -0.0334,0.1192 -0.0951,0.1285 -0.0616,0.0092 -0.1192,-0.0334 -0.1284,-0.0951 z"
               class="fil39"
               id="_246697472-3"
               inkscape:connector-curvature="0"
               style="fill:#98274b;fill-rule:nonzero" />
            <path
               d="m 64.3165,68.0155 c 0.0241,0.0575 0.0905,0.0845 0.1479,0.0604 0.0575,-0.0242 0.0846,-0.0905 0.0604,-0.148 l -0.319,-0.7583 c -0.0241,-0.0575 -0.0904,-0.0845 -0.1479,-0.0604 -0.0575,0.0242 -0.0845,0.0905 -0.0604,0.148 z"
               class="fil39"
               id="_246697520-6"
               inkscape:connector-curvature="0"
               style="fill:#98274b;fill-rule:nonzero" />
            <path
               d="m 66.3634,66.8514 c 0.0085,-0.0618 0.0656,-0.1051 0.1273,-0.0966 0.0618,0.0084 0.1051,0.0655 0.0966,0.1272 l -0.1118,0.8151 c -0.0085,0.0617 -0.0655,0.105 -0.1273,0.0966 -0.0618,-0.0084 -0.1051,-0.0655 -0.0966,-0.1273 z"
               class="fil39"
               id="_246702536-1"
               inkscape:connector-curvature="0"
               style="fill:#98274b;fill-rule:nonzero" />
            <path
               d="m 65.0419,66.6768 c -0.0093,-0.0616 0.0334,-0.1192 0.095,-0.1284 0.0617,-0.0093 0.1192,0.0334 0.1285,0.095 l 0.1214,0.8137 c 0.0092,0.0616 -0.0334,0.1192 -0.0951,0.1284 -0.0616,0.0093 -0.1192,-0.0334 -0.1284,-0.095 z"
               class="fil39"
               id="_246700304-0"
               inkscape:connector-curvature="0"
               style="fill:#98274b;fill-rule:nonzero" />
            <path
               d="m 63.7475,64.2287 c 0.0999,-0.1812 0.3222,-0.2503 0.4967,-0.1541 0.1745,0.0961 0.2348,0.321 0.135,0.5022 -0.0999,0.1811 -0.3222,0.2502 -0.4967,0.1541 -0.1745,-0.0962 -0.2348,-0.3211 -0.135,-0.5022 z m 2.3381,-0.2251 c 0.0998,-0.1812 0.3222,-0.2503 0.4966,-0.1541 0.1745,0.0961 0.2349,0.321 0.135,0.5022 -0.0998,0.1812 -0.3221,0.2502 -0.4966,0.1541 -0.1745,-0.0962 -0.2349,-0.321 -0.135,-0.5022 z m -1.1904,-0.3245 c 0.0998,-0.1812 0.3222,-0.2502 0.4967,-0.1541 0.1744,0.0962 0.2348,0.321 0.135,0.5022 -0.0999,0.1812 -0.3222,0.2503 -0.4967,0.1541 -0.1745,-0.0961 -0.2349,-0.321 -0.135,-0.5022 z"
               class="fil11"
               id="_246696560-6"
               inkscape:connector-curvature="0"
               style="fill:#ffcf15" />
          </g>
          <g
             transform="matrix(1.2709776,0,0,1.2767117,-115.27615,-171.53206)"
             style="clip-rule:evenodd;fill-rule:evenodd;image-rendering:optimizeQuality;shape-rendering:geometricPrecision;text-rendering:geometricPrecision"
             id="_247248048-2">
            <path
               d="m 30.6625,194.216 c 0.1095,-1.5793 0.1661,-3.6219 -0.4256,-4.3989 -1.1737,-1.5416 -2.2519,0.9709 -1.9915,2.3744 -1.2078,-3.5202 -4.3407,-2.9877 -2.279,1.3275 -2.5827,-3.0963 -4.1252,-1.4467 -2.7399,0.4941 0.4249,0.5952 2.3412,2.5725 4.0443,3.6308 0.482,-0.6232 1.2369,-1.0246 2.0858,-1.0246 1.4556,0 2.6354,1.1798 2.6354,2.6354 0,1.4556 -1.1798,2.6354 -2.6354,2.6354 -0.8765,0 -1.653,-0.4279 -2.132,-1.0862 -0.5408,0.4219 -1.0426,0.9367 -1.4792,1.3102 -1.2028,1.029 -2.6991,2.4207 -2.8384,3.3876 -0.2766,1.9173 2.2711,0.9248 3.0895,-0.2448 -1.6634,3.3294 0.9126,5.1896 2.5442,0.6945 -0.3971,4.0125 1.8606,3.9557 2.2735,1.6076 0.1203,-0.6858 0.1861,-3.2131 -0.1865,-5.1422 0.2076,0.4861 0.4446,0.9539 0.6146,1.3597 0.6112,1.4603 1.4778,3.3107 2.3555,3.7394 1.7409,0.8506 1.5761,-1.8788 0.7134,-3.0158 2.6595,2.603 5.2198,0.7204 1.44,-2.2093 3.6982,1.6066 4.3356,-0.5599 2.2264,-1.6719 -0.6961,-0.367 -3.6537,-1.3883 -5.6878,-1.4565 0.8578,-0.0646 1.796,-0.4026 2.5258,-0.5772 1.5398,-0.368 3.5057,-0.9251 4.0701,-1.722 1.1199,-1.5812 -1.6002,-1.8583 -2.8614,-1.1899 2.9975,-2.2058 1.552,-5.0358 -1.9485,-1.7774 2.1815,-3.391 0.146,-4.3693 -1.2914,-2.4668 -0.4373,0.5789 -1.7333,2.9657 -2.2423,4.8993 0.0979,-0.7216 0.078,-1.4999 0.1204,-2.1124 z m -3.4294,3.4778 c -0.638,-0.4643 -1.4333,-0.8234 -2.0158,-1.1619 -1.3684,-0.7958 -3.1762,-1.7483 -4.1347,-1.5603 -1.9013,0.372 -0.1232,2.4489 1.251,2.8352 -3.6916,-0.4708 -4.5972,2.5753 0.1847,2.6309 -3.9185,0.95 -3.1193,3.0626 -0.7667,2.6765 0.7859,-0.1288 3.821,-1.1203 5.472,-2.3118 -0.316,-0.4347 -0.5025,-0.9693 -0.5025,-1.5477 0,-0.5843 0.1902,-1.1241 0.512,-1.5609 z"
               class="fil9"
               id="_247247616-0"
               inkscape:connector-curvature="0"
               style="fill:#025373;fill-opacity:1" />
            <circle
               r="2.6354401"
               cy="199.255"
               cx="29.356501"
               class="fil17"
               id="_247248888-6"
               style="fill:#f2c063;fill-opacity:1" />
          </g>
          <path
             id="path1142-3"
             d="m -82.509863,40.276816 c -0.564624,-1.139047 -1.122251,-2.2634 -1.765369,-3.362153 -0.314562,0.579222 -0.628519,1.158549 -0.951972,1.732868 0.218772,0.532235 0.376944,1.061461 0.497633,1.599993 0.227671,1.015866 0.382747,2.245004 0.355453,3.287768 -0.01367,0.528629 -0.06806,1.038569 -0.16068,1.520003 -0.171378,0.890386 -0.58142,1.436615 -1.192443,1.836062 -0.606725,0.396644 -1.409614,0.646309 -2.374792,0.946272 -0.7419,0.230568 -1.427214,0.459839 -2.098621,0.722805 -0.713412,0.279561 -1.39652,0.595326 -2.072631,0.955673 -0.03831,-0.440138 -0.07827,-0.880086 -0.118787,-1.320025 -0.642013,-6.99138 -0.530932,-8.44729 6.693527,-9.714429 0.37895,-0.669608 0.794595,-1.319125 1.161844,-1.99464 l -1.238091,-2.626247 0.28072,-0.287448 c 0.423351,0.723306 1.764066,3.387815 2.167612,4.129015 0.757805,0.04048 1.509305,0.134086 2.269411,0.161778 2.381486,-2.828525 4.626189,-4.818365 10.708597,-1.383522 0.287462,0.211775 0.573125,0.426249 0.859188,0.639918 0.377549,0.281862 0.7556,0.563128 1.134251,0.843693 -0.659514,0.388749 -1.284232,0.806392 -1.894852,1.268436 -0.578424,0.437743 -1.136551,0.90508 -1.714776,1.412408 -0.7598,0.66652 -1.392317,1.221043 -2.047031,1.531307 -0.659514,0.312452 -1.339225,0.376944 -2.187614,0.05846 -0.458644,-0.172079 -0.921783,-0.392148 -1.380423,-0.656817 -0.451641,-0.260561 -0.899082,-0.564728 -1.333324,-0.909179 -0.456138,-0.361653 -0.877483,-0.736902 -1.270236,-1.139151 -0.388446,-0.397752 -0.749199,-0.822495 -1.088453,-1.286832 -0.61712,-0.023 -1.22874,-0.09108 -1.844563,-0.125281 0.33806,0.65961 0.587422,1.358821 0.915778,2.022834 0.563629,0.117887 1.108154,0.264262 1.640286,0.446944 0.537831,0.184576 1.063165,0.406547 1.582394,0.673508 0.92548,0.47564 1.809564,1.08796 2.546168,1.825658 1.081262,1.083463 0.970377,2.171017 0.555131,3.652223 -0.282963,1.009173 -0.600525,1.967847 -0.835194,3.003605 -0.169778,0.749208 -0.289863,1.488108 -0.372952,2.251707 -0.333856,-0.186573 -0.668412,-0.37185 -1.002968,-0.556927 -5.600471,-3.099897 -7.711692,-4.269136 -4.422221,-11.160341 z"
             class="fil18"
             inkscape:connector-curvature="0"
             style="clip-rule:evenodd;fill:#025373;fill-opacity:1;fill-rule:evenodd;stroke-width:0.99986899;image-rendering:optimizeQuality;shape-rendering:geometricPrecision;text-rendering:geometricPrecision"
             sodipodi:nodetypes="ccccccccccccccccccccccccccccccccccccccc" />
        </g>
      </g>
    </g>
  </g>
</svg>
